<svg xmlns="http://www.w3.org/2000/svg" viewBox="0 0 512 512">
  <rect width="512" height="512" fill="#bcbcbc"/>
  <path d="M0 86C74 110 144 112 210 82C278 52 334 56 512 120V162C334 98 278 94 210 124C144 154 74 152 0 128Z" fill="#8c8c8c"/>
  <path d="M0 212C98 246 166 246 230 212C294 178 362 184 512 238V278C362 224 294 218 230 252C166 286 98 286 0 252Z" fill="#ececec"/>
  <path d="M0 356C88 388 154 390 226 354C302 318 364 322 512 380V418C364 360 302 356 226 392C154 428 88 426 0 394Z" fill="#9d9d9d"/>
</svg>
