<svg xmlns="http://www.w3.org/2000/svg" viewBox="0 0 512 512">
  <defs>
    <linearGradient id="wood" x1="0" y1="0" x2="1" y2="0">
      <stop offset="0%" stop-color="#4a3020"/>
      <stop offset="40%" stop-color="#7b583a"/>
      <stop offset="100%" stop-color="#a3774e"/>
    </linearGradient>
  </defs>
  <rect width="512" height="512" fill="url(#wood)"/>
  <path d="M0 90C76 116 140 118 212 84C274 56 332 60 512 126V170C332 104 274 100 212 128C140 162 76 160 0 136Z" fill="#c79b68" opacity="0.32"/>
  <path d="M0 220C90 250 156 250 222 218C296 182 356 188 512 248V288C356 228 296 222 222 256C156 290 90 290 0 260Z" fill="#2b1b11" opacity="0.36"/>
  <path d="M0 370C92 400 158 402 228 366C300 330 364 334 512 392V432C364 374 300 370 228 406C158 442 92 440 0 410Z" fill="#d7b280" opacity="0.24"/>
</svg>
