<svg xmlns="http://www.w3.org/2000/svg" viewBox="0 0 512 512">
  <defs>
    <linearGradient id="wood" x1="0" y1="0" x2="1" y2="0">
      <stop offset="0%" stop-color="#382214"/>
      <stop offset="28%" stop-color="#634229"/>
      <stop offset="58%" stop-color="#916846"/>
      <stop offset="100%" stop-color="#bf8d61"/>
    </linearGradient>
    <radialGradient id="sap" cx="28%" cy="30%" r="54%">
      <stop offset="0%" stop-color="#f6d2a4" stop-opacity="0.3"/>
      <stop offset="100%" stop-color="#f6d2a4" stop-opacity="0"/>
    </radialGradient>
  </defs>
  <rect width="512" height="512" fill="url(#wood)"/>
  <rect width="512" height="512" fill="url(#sap)"/>
  <path d="M0 90C76 116 140 118 212 84C274 56 332 60 512 126V170C332 104 274 100 212 128C140 162 76 160 0 136Z" fill="#d4aa76" opacity="0.38"/>
  <path d="M0 220C90 250 156 250 222 218C296 182 356 188 512 248V288C356 228 296 222 222 256C156 290 90 290 0 260Z" fill="#2a1a10" opacity="0.42"/>
  <path d="M0 370C92 400 158 402 228 366C300 330 364 334 512 392V432C364 374 300 370 228 406C158 442 92 440 0 410Z" fill="#e0bb86" opacity="0.28"/>
  <path d="M14 70C104 92 174 92 246 66C304 46 356 46 494 92" stroke="#f1cf9f" stroke-width="8" stroke-linecap="round" opacity="0.3"/>
  <path d="M24 196C116 224 188 222 256 190C320 160 374 164 498 208" stroke="#523321" stroke-width="10" stroke-linecap="round" opacity="0.36"/>
  <path d="M32 340C128 372 196 372 266 338C338 304 394 308 502 352" stroke="#f7d5a3" stroke-width="8" stroke-linecap="round" opacity="0.24"/>
  <ellipse cx="148" cy="270" rx="40" ry="24" fill="#2b1a11" opacity="0.26"/>
  <ellipse cx="148" cy="270" rx="14" ry="8" fill="#e2bc85" opacity="0.22"/>
  <ellipse cx="372" cy="118" rx="48" ry="24" fill="#d2a16d" opacity="0.18"/>
  <ellipse cx="372" cy="118" rx="18" ry="10" fill="#3b2416" opacity="0.24"/>
</svg>
