<svg xmlns="http://www.w3.org/2000/svg" viewBox="0 0 512 512">
  <defs>
    <radialGradient id="body" cx="40%" cy="36%" r="70%">
      <stop offset="0%" stop-color="#fff7c2"/>
      <stop offset="42%" stop-color="#ffc566"/>
      <stop offset="72%" stop-color="#f58a1f"/>
      <stop offset="100%" stop-color="#b84e00"/>
    </radialGradient>
  </defs>
  <rect width="512" height="512" fill="url(#body)"/>
  <path d="M70 392C152 332 232 320 324 358C396 388 460 392 512 378V512H0V442C28 432 48 416 70 392Z" fill="#ffd57e" opacity="0.34"/>
  <path d="M122 104C196 60 286 52 404 82" stroke="#fff3c0" stroke-width="18" stroke-linecap="round" opacity="0.38"/>
  <path d="M114 188C194 150 286 144 404 176" stroke="#d95d00" stroke-width="18" stroke-linecap="round" opacity="0.24"/>
  <path d="M0 126C122 100 236 104 344 140C406 158 464 162 512 154V212C464 220 406 220 344 202C236 166 122 162 0 188Z" fill="#fff5d0" opacity="0.16"/>
  <path d="M0 286C118 258 230 262 340 294C404 312 462 314 512 304V360C462 370 404 368 340 350C230 318 118 314 0 340Z" fill="#c65400" opacity="0.12"/>
  <circle cx="356" cy="126" r="44" fill="#fff1c1" opacity="0.32"/>
  <circle cx="286" cy="250" r="22" fill="#fff4cf" opacity="0.18"/>
</svg>
