<svg xmlns="http://www.w3.org/2000/svg" viewBox="0 0 512 512">
  <defs>
    <linearGradient id="body" x1="0" y1="0" x2="1" y2="1">
      <stop offset="0%" stop-color="#f5fbff"/>
      <stop offset="30%" stop-color="#bcdcf3"/>
      <stop offset="58%" stop-color="#6ea8d7"/>
      <stop offset="100%" stop-color="#1f427b"/>
    </linearGradient>
  </defs>
  <rect width="512" height="512" fill="url(#body)"/>
  <path d="M110 0H190L0 512H0Z" fill="#11213a" opacity="0.34"/>
  <path d="M216 0H296L28 512H0Z" fill="#fcffff" opacity="0.24"/>
  <path d="M330 0H406L126 512H58Z" fill="#193459" opacity="0.28"/>
  <path d="M438 0H512V114L246 512H176Z" fill="#f8ffff" opacity="0.18"/>
  <path d="M0 126C120 108 228 112 348 146C412 164 468 164 512 154V206C468 216 412 216 348 198C228 164 120 160 0 180Z" fill="#ffffff" opacity="0.16"/>
  <path d="M0 288C108 266 220 266 334 294C398 310 458 312 512 302V352C458 362 398 362 334 344C220 316 108 316 0 338Z" fill="#16304f" opacity="0.16"/>
  <circle cx="350" cy="108" r="28" fill="#ffffff" opacity="0.22"/>
</svg>
