<svg xmlns="http://www.w3.org/2000/svg" viewBox="0 0 512 512">
  <defs>
    <pattern id="scale" width="56" height="44" patternUnits="userSpaceOnUse">
      <rect width="56" height="44" fill="#8080ff"/>
      <path d="M4 24C12 8 24 2 28 2C32 2 44 8 52 24C44 18 36 14 28 14C20 14 12 18 4 24Z" fill="#d9efff"/>
      <path d="M6 26C12 34 20 40 28 40C36 40 44 34 50 26" stroke="#5e63ea" stroke-width="6" stroke-linecap="round"/>
      <path d="M20 16C24 18 32 18 36 16" stroke="#9ec2ff" stroke-width="4" stroke-linecap="round"/>
    </pattern>
  </defs>
  <rect width="512" height="512" fill="url(#scale)"/>
  <path d="M0 144C104 124 204 126 308 150C382 168 450 170 512 158V226C450 236 382 236 308 218C204 194 104 192 0 214Z" fill="#8caeff" opacity="0.38"/>
  <path d="M0 286C110 262 214 264 322 292C392 310 456 312 512 302V352C456 362 392 360 322 342C214 314 110 312 0 336Z" fill="#6f75ef" opacity="0.32"/>
</svg>
