<svg xmlns="http://www.w3.org/2000/svg" viewBox="0 0 512 512">
  <defs>
    <pattern id="scale" width="56" height="44" patternUnits="userSpaceOnUse">
      <rect width="56" height="44" fill="#5c5c5c"/>
      <path d="M4 24C12 8 24 2 28 2C32 2 44 8 52 24C44 18 36 14 28 14C20 14 12 18 4 24Z" fill="#6f6f6f"/>
      <path d="M6 28C12 34 20 40 28 40C36 40 44 34 50 28" stroke="#3b3b3b" stroke-width="6" stroke-linecap="round"/>
      <path d="M18 18C24 12 32 12 38 18" stroke="#8e8e8e" stroke-width="3" stroke-linecap="round"/>
    </pattern>
    <linearGradient id="sheen" x1="0" y1="0" x2="1" y2="0">
      <stop offset="0%" stop-color="#676767"/>
      <stop offset="45%" stop-color="#2e2e2e"/>
      <stop offset="100%" stop-color="#757575"/>
    </linearGradient>
  </defs>
  <rect width="512" height="512" fill="url(#scale)"/>
  <rect width="512" height="512" fill="url(#sheen)" opacity="0.62"/>
  <path d="M0 158C114 132 226 134 336 166C404 184 462 184 512 172V232C462 242 404 242 336 224C226 192 114 190 0 216Z" fill="#252525" opacity="0.5"/>
  <path d="M0 300C116 276 224 280 334 310C400 328 460 330 512 320V378C460 388 400 386 334 368C224 338 116 334 0 360Z" fill="#8c8c8c" opacity="0.32"/>
</svg>
