<svg xmlns="http://www.w3.org/2000/svg" viewBox="0 0 512 512">
  <defs>
    <linearGradient id="bg" x1="0" y1="0" x2="1" y2="1">
      <stop offset="0%" stop-color="#14422d"/>
      <stop offset="28%" stop-color="#256443"/>
      <stop offset="62%" stop-color="#5fb879"/>
      <stop offset="100%" stop-color="#d8f7b9"/>
    </linearGradient>
    <linearGradient id="vein" x1="0" y1="0" x2="0" y2="1">
      <stop offset="0%" stop-color="#fbffd8" stop-opacity="0.92"/>
      <stop offset="45%" stop-color="#bde58c" stop-opacity="0.58"/>
      <stop offset="100%" stop-color="#5f9b63" stop-opacity="0.18"/>
    </linearGradient>
    <radialGradient id="warmPatch" cx="34%" cy="28%" r="62%">
      <stop offset="0%" stop-color="#f1f1a8" stop-opacity="0.48"/>
      <stop offset="100%" stop-color="#f1f1a8" stop-opacity="0"/>
    </radialGradient>
  </defs>
  <rect width="512" height="512" rx="48" fill="url(#bg)"/>
  <rect width="512" height="512" rx="48" fill="url(#warmPatch)"/>
  <path d="M88 420C148 318 180 222 194 120C262 146 332 242 392 414C330 452 232 470 88 420Z" fill="#225339" opacity="0.62"/>
  <path d="M132 420C194 330 226 218 240 92C314 124 364 222 394 412C322 448 236 454 132 420Z" fill="url(#vein)"/>
  <path d="M176 182C234 184 300 210 350 266" stroke="#78c37e" stroke-width="24" stroke-linecap="round" opacity="0.18"/>
  <path d="M244 102C248 206 220 316 170 418" stroke="#f0f8d0" stroke-width="12" stroke-linecap="round" opacity="0.82"/>
  <path d="M230 174C268 190 308 224 344 284" stroke="#e5f2b8" stroke-width="8" stroke-linecap="round" opacity="0.58"/>
  <path d="M216 242C258 266 294 308 328 364" stroke="#dcedb2" stroke-width="7" stroke-linecap="round" opacity="0.42"/>
  <path d="M198 218C168 256 144 300 116 358" stroke="#163523" stroke-width="10" stroke-linecap="round" opacity="0.24"/>
  <circle cx="272" cy="214" r="16" fill="#f7ffd6" opacity="0.3"/>
  <circle cx="304" cy="298" r="22" fill="#1f5d3f" opacity="0.16"/>
</svg>
