<svg xmlns="http://www.w3.org/2000/svg" viewBox="0 0 512 512">
  <defs>
    <linearGradient id="bg" x1="0" y1="0" x2="1" y2="1">
      <stop offset="0%" stop-color="#6c6c6c"/>
      <stop offset="55%" stop-color="#515151"/>
      <stop offset="100%" stop-color="#777777"/>
    </linearGradient>
  </defs>
  <rect width="512" height="512" rx="48" fill="url(#bg)"/>
  <path d="M92 420C154 318 186 224 202 114C274 144 340 242 398 414C330 458 236 474 92 420Z" fill="#707070"/>
  <path d="M132 420C194 332 228 220 244 90C316 122 366 222 396 412C324 450 238 456 132 420Z" fill="#4f4f4f"/>
  <path d="M244 96C248 204 220 316 170 418" stroke="#2c2c2c" stroke-width="16" stroke-linecap="round"/>
  <path d="M230 174C274 194 316 232 350 292" stroke="#868686" stroke-width="10" stroke-linecap="round"/>
  <path d="M218 244C260 272 296 316 330 372" stroke="#8d8d8d" stroke-width="8" stroke-linecap="round"/>
  <path d="M188 144C236 154 278 178 320 222" stroke="#3c3c3c" stroke-width="14" stroke-linecap="round" opacity="0.45"/>
  <circle cx="210" cy="256" r="16" fill="#9b9b9b" opacity="0.35"/>
  <circle cx="294" cy="322" r="20" fill="#383838" opacity="0.28"/>
</svg>
