<svg xmlns="http://www.w3.org/2000/svg" viewBox="0 0 512 512">
  <defs>
    <linearGradient id="rock" x1="0" y1="0" x2="1" y2="1">
      <stop offset="0%" stop-color="#b0a48f"/>
      <stop offset="26%" stop-color="#8a7f6e"/>
      <stop offset="62%" stop-color="#574f44"/>
      <stop offset="100%" stop-color="#342f29"/>
    </linearGradient>
    <radialGradient id="coolBloom" cx="62%" cy="18%" r="46%">
      <stop offset="0%" stop-color="#d7d5ca" stop-opacity="0.34"/>
      <stop offset="100%" stop-color="#d7d5ca" stop-opacity="0"/>
    </radialGradient>
  </defs>
  <rect width="512" height="512" fill="url(#rock)"/>
  <rect width="512" height="512" fill="url(#coolBloom)"/>
  <path d="M34 160L142 58L274 104L198 224Z" fill="#c1b39b" opacity="0.54"/>
  <path d="M238 88L402 64L474 180L336 236Z" fill="#4a4338" opacity="0.58"/>
  <path d="M72 284L204 214L318 302L212 438L66 404Z" fill="#948772" opacity="0.52"/>
  <path d="M286 262L432 214L482 344L374 452L250 402Z" fill="#d2c5ab" opacity="0.36"/>
  <path d="M0 420L108 340L214 430L112 512L0 512Z" fill="#2c2821" opacity="0.72"/>
  <path d="M332 336L512 286L512 512L390 512L286 432Z" fill="#847866" opacity="0.46"/>
  <path d="M56 188L176 126L216 164" stroke="#e2ddcf" stroke-width="12" stroke-linecap="round" opacity="0.34"/>
  <path d="M252 164L376 126L430 178" stroke="#26211d" stroke-width="10" stroke-linecap="round" opacity="0.3"/>
  <path d="M124 320L198 382L154 420" stroke="#ece6d7" stroke-width="8" stroke-linecap="round" opacity="0.28"/>
  <path d="M294 308L392 392L332 432" stroke="#2b251f" stroke-width="8" stroke-linecap="round" opacity="0.28"/>
  <circle cx="118" cy="358" r="12" fill="#ded5c2" opacity="0.24"/>
  <circle cx="370" cy="274" r="10" fill="#201b17" opacity="0.2"/>
</svg>
