<svg xmlns="http://www.w3.org/2000/svg" viewBox="0 0 512 512">
  <defs>
    <linearGradient id="rock" x1="0" y1="0" x2="1" y2="1">
      <stop offset="0%" stop-color="#918874"/>
      <stop offset="45%" stop-color="#655f52"/>
      <stop offset="100%" stop-color="#3e392f"/>
    </linearGradient>
  </defs>
  <rect width="512" height="512" fill="url(#rock)"/>
  <path d="M34 160L142 58L274 104L198 224Z" fill="#b2a58f" opacity="0.45"/>
  <path d="M238 88L402 64L474 180L336 236Z" fill="#4d463b" opacity="0.55"/>
  <path d="M72 284L204 214L318 302L212 438L66 404Z" fill="#887d69" opacity="0.48"/>
  <path d="M286 262L432 214L482 344L374 452L250 402Z" fill="#c1b59d" opacity="0.32"/>
  <path d="M0 420L108 340L214 430L112 512L0 512Z" fill="#2f2a24" opacity="0.65"/>
  <path d="M332 336L512 286L512 512L390 512L286 432Z" fill="#756b5a" opacity="0.42"/>
</svg>
